<?xml version="1.0" encoding="utf-8"?>
<!-- Generator: Adobe Illustrator 16.0.0, SVG Export Plug-In . SVG Version: 6.00 Build 0)  -->
<!DOCTYPE svg PUBLIC "-//W3C//DTD SVG 1.1//EN" "http://www.w3.org/Graphics/SVG/1.1/DTD/svg11.dtd">
<svg version="1.1" xmlns="http://www.w3.org/2000/svg" xmlns:xlink="http://www.w3.org/1999/xlink" x="0px" y="0px"
	 width="595.28px" height="82.496px" viewBox="0 0 595.28 82.496" enable-background="new 0 0 595.28 82.496" xml:space="preserve">
<g id="guides">
</g>
<g id="Layer_1">
	<path display="none" fill="#2765A3" d="M104.012-140.163c-0.018-0.066-0.04-0.141-0.065-0.219
		c-0.086-0.389-0.136-0.596-0.136-0.596c-0.139-0.52-0.344-1.011-0.606-1.466c-0.683-1.181-1.749-2.035-3.042-2.609
		c-0.353-0.157-0.717-0.325-1.089-0.407c-31.558-6.61-59.571,0.202-59.571,0.202c-0.519,0.138-1.011,0.343-1.465,0.605
		c-0.916,0.53-1.679,1.293-2.209,2.209l0,0c-0.263,0.455-0.468,0.946-0.606,1.466c0,0-0.068,0.282-0.184,0.814l-0.018,0.001
		c-2.196,10.486-2.91,20.578-2.885,29.384c-0.024,8.802,0.689,18.89,2.885,29.372c0.018,0.065,0.04,0.14,0.065,0.218
		c0.086,0.39,0.136,0.598,0.136,0.598c0.138,0.519,0.343,1.011,0.606,1.465c0.683,1.182,1.75,2.035,3.042,2.609
		c0.353,0.157,0.716,0.325,1.089,0.407c31.557,6.61,59.571-0.202,59.571-0.202c0.519-0.138,1.011-0.343,1.465-0.605
		c0.916-0.529,1.68-1.293,2.209-2.209l0,0c0.263-0.454,0.468-0.946,0.606-1.465c0,0,0.068-0.282,0.183-0.814l0.019-0.001
		c2.195-10.483,2.909-20.573,2.885-29.378C106.921-119.589,106.208-129.68,104.012-140.163z"/>
	<g>
		<path fill="#FFFFFF" d="M90.913,16.23c0,1.914-1.914,2.41-2.764,2.41h-0.071c-0.567,0-11.624-3.756-27.288-5.032
			c0.708,0.496,1.276,1.205,1.417,2.126c0,0.212-0.709,4.607-0.709,18.428v1.134c0,11.836,0.071,21.122,0.071,21.122
			c0,1.347-0.921,1.913-2.126,2.056c-0.213,0-0.354,0.07-0.567,0.07c-1.063,0-2.197-0.425-2.41-1.134
			c-1.63-5.104-3.898-21.618-3.898-32.816c0-5.458,0.496-9.639,1.914-10.702c0,0,0.284-0.284,0.921-0.567
			c-0.496,0-1.063,0-1.63-0.071h-1.488c-13.042,0-26.153,3.827-26.153,8.363v0.284c0.354,2.41,3.756,2.977,7.229,2.977
			c3.402,0,6.804-0.567,7.372-0.567h0.071c0.921,0.142,1.914,1.205,1.984,1.843v0.071c0,0.992-2.977,1.914-6.875,2.481
			c-1.559,0.283-3.26,0.425-4.961,0.425c-7.088,0-14.742-2.126-15.522-7.513c-0.071-0.213-0.071-0.425-0.071-0.638
			c0-6.167,11.978-14.176,34.446-14.176c0.921,0,1.843,0,2.764,0.071c24.736,0.638,37.352,8.009,37.848,8.009
			c0.354,0.213,0.496,0.638,0.496,1.205V16.23z"/>
		<path fill="#FFFFFF" d="M102.612,46.708c-1.063,1.984-4.182,8.505-9.498,8.505c-9.923,0-4.465-14.459-8.08-14.459
			c-3.473,0-8.009,12.403-8.434,13.537v0.143c-0.284,0.779-2.197,0.779-2.197,0.779s-1.843,0-2.056-0.779
			c-0.071-0.071-1.276-9.994-1.276-28.068c0-6.591,0.425-14.104,0.851-15.026c0.354-0.496,2.339-1.417,3.048-1.417
			c1.134,0,2.268,0.851,2.481,1.205c0.142,0.496,0.354,3.827,0.354,9.072c0,7.159-0.425,18.215-0.779,25.799
			c1.984-4.536,5.812-11.624,11.057-11.624c7.655,0,2.268,16.373,6.379,16.373c1.984,0,4.891-4.111,7.088-8.223
			c0.212-0.425,0.354-0.566,0.567-0.566c0.496,0,0.851,1.275,0.921,2.552v0.142C103.038,45.432,102.896,46.212,102.612,46.708z"/>
		<path fill="#FFFFFF" d="M129.76,46.708c-0.992,1.984-4.111,8.505-9.498,8.505c-2.197,0-3.756-0.992-4.749-2.835
			c-1.985,1.701-4.607,2.835-7.442,2.835c-6.237,0-11.34-4.678-11.34-10.419s5.104-10.419,11.34-10.419
			c2.268,0,4.395,0.709,6.167,1.843c0.071-0.496,0.142-0.78,0.213-0.921c0.425-0.638,0.779-0.921,2.41-0.921
			c1.559,0,2.623,0.213,2.977,0.921c0.071,0.142,0.142,0.78,0.142,1.63c0,2.055-0.213,5.74-0.213,7.938
			c0,3.189,0.354,5.883,1.843,5.883c2.056,0,4.891-4.111,7.088-8.223c0.212-0.425,0.354-0.566,0.567-0.566
			c0.496,0,0.921,1.275,0.921,2.552C130.186,45.29,130.044,46.141,129.76,46.708z M113.884,44.439
			c-0.142-2.977-1.914-5.387-5.812-5.387c-2.551,0-4.678,2.552-4.678,5.741c0,3.118,2.126,5.741,4.678,5.741
			c4.04,0,5.812-2.552,5.812-5.741v-0.213V44.439z"/>
		<path fill="#FFFFFF" d="M157.617,46.708c-0.992,1.984-4.111,8.505-9.427,8.505c-9.994,0-4.465-14.459-8.08-14.459
			c-3.473,0-8.08,12.971-8.434,14.034l-0.071,0.07c-0.213,0.354-2.126,0.354-2.126,0.354s-1.843,0-2.056-0.354
			c-0.071-0.07-1.347-5.104-1.347-12.97c0-1.63,0.425-6.45,0.78-6.875c0.425-0.283,2.41-0.638,3.119-0.638h0.142
			c1.134,0,2.126,0.354,2.339,0.496c0.142,0.284,0.354,3.189,0.354,4.182c0,1.701-0.142,3.827-0.283,5.954
			c2.055-4.536,5.741-10.632,10.631-10.632c7.655,0,2.268,16.373,6.379,16.373c1.985,0,4.891-4.111,7.088-8.223
			c0.212-0.425,0.283-0.566,0.567-0.566c0.496,0,0.851,1.275,0.851,2.552C158.042,45.29,157.971,46.141,157.617,46.708z"/>
		<path fill="#FFFFFF" d="M182.922,46.708c-1.347,2.693-5.245,8.505-11.978,8.505c0,0-6.167,0-9.639-6.379
			c0.78-0.425,8.363-3.261,8.363-7.017c0-1.275-0.779-2.268-2.551-2.268c-4.607,0-8.293,7.301-9.001,13.467
			c-0.071,0.567-0.071,0.992-0.071,1.205v0.213c-0.284,0.779-2.197,0.779-2.197,0.779s-1.843,0-2.056-0.779
			c-0.071-0.071-1.276-9.994-1.276-28.068c0-6.591,0.425-14.104,0.851-15.026c0.354-0.496,2.339-1.417,3.048-1.417
			c1.134,0,2.268,0.851,2.48,1.205c0.142,0.496,0.354,3.827,0.354,9.072c0,5.954-0.283,14.53-0.567,21.688
			c1.984-3.544,5.387-7.513,10.703-7.513c3.827,0,6.166,2.481,6.166,5.528c0,0,0,6.096-7.513,8.931c0,0.071,1.205,1.701,3.473,1.701
			c5.032,0,7.868-3.261,10.419-8.01c0.213-0.425,0.284-0.566,0.567-0.566c0.496,0,0.85,1.275,0.85,2.552
			C183.347,45.29,183.276,46.141,182.922,46.708z"/>
		<path fill="#FFFFFF" d="M203.408,46.708c-1.347,2.693-5.245,8.505-11.979,8.505c-5.812,0-7.087-2.126-7.371-2.48
			c-0.212-0.354-0.354-1.347-0.354-2.197c0-0.78,0.071-1.418,0.354-1.418c0.567,0,1.914,1.488,3.828,1.488
			c2.126,0,3.686-1.771,3.686-3.827c0-3.473-3.473-4.536-5.387-8.009c0,0-0.284,0.851-0.567,1.843
			c-0.567,2.055-3.898,9.355-5.458,9.355c-0.638,0-0.921-2.197-0.921-2.835c0-0.496,2.623-3.969,3.828-7.867
			c0.708-2.268,0.851-3.615,0.851-4.536c0-0.638-0.071-1.063-0.071-1.347c0-0.78,2.197-2.056,3.898-2.056h0.071
			c1.489,0,2.197,0.071,2.197,0.851c0,4.961,7.3,7.229,7.3,13.68c0,1.771-0.779,3.048-1.347,3.756
			c2.835-1.204,4.678-3.756,6.45-7.088c0.212-0.425,0.283-0.566,0.567-0.566c0.496,0,0.851,1.275,0.851,2.552
			C203.833,45.29,203.762,46.141,203.408,46.708z"/>
		<path fill="#FFFFFF" d="M240.762,46.708c-0.921,1.771-4.111,6.804-8.576,7.867c2.977,3.969,5.599,9.072,5.599,14.742
			c0,6.662-3.119,10.348-6.095,10.348c-6.804,0-10.986-3.897-10.986-33.879c0-17.01,1.347-30.619,1.63-34.163
			c0.142-1.205,1.701-1.701,3.26-1.772h0.142c1.488,0,3.402,0.78,3.402,2.339c0,0.921-2.339,19.279-2.339,28.634v1.842
			c0.071,1.772,0.567,7.301,4.395,7.301c3.756,0,6.308-3.331,8.505-7.442c0.213-0.425,0.354-0.566,0.567-0.566
			c0.496,0,0.85,1.275,0.921,2.552v0.142C241.187,45.432,241.045,46.212,240.762,46.708z M226.94,53.583
			c0.425,13.75,1.63,20.696,4.607,20.696c1.985,0,2.268-2.056,2.268-4.82C233.815,61.946,229.705,56.418,226.94,53.583z"/>
		<path fill="#FFFFFF" d="M246.22,55.213c-6.237,0-11.34-4.678-11.34-10.419s5.104-10.419,11.34-10.419
			c6.308,0,11.412,4.678,11.412,10.419S252.528,55.213,246.22,55.213z M246.22,39.053c-2.551,0-4.678,2.552-4.678,5.741
			c0,3.118,2.126,5.741,4.678,5.741c2.623,0,4.749-2.623,4.749-5.741C250.969,41.604,248.842,39.053,246.22,39.053z"/>
		<path fill="#FFFFFF" d="M282.936,46.708c-0.992,1.984-4.111,8.505-9.427,8.505c-3.615,0-5.458-2.48-5.458-5.245
			c0-2.126,1.63-5.528,2.48-7.442c0.071-0.212,0.142-0.354,0.142-0.496c0-0.354-0.354-0.567-0.78-0.567
			c-1.63-0.071-4.182-0.567-4.749-0.851c-0.567,2.055-3.898,9.355-5.458,9.355c-0.638,0-0.921-2.197-0.921-2.835
			c0-0.496,2.623-3.969,3.828-7.867c-0.425-0.354-2.41-1.488-2.41-4.891c0-1.347,0.921-3.615,2.693-3.615
			c2.268,0,3.331,1.984,3.331,4.749c1.134,0.779,5.032,0.992,6.804,0.992c2.835,0,4.323,1.205,4.323,3.473
			c0,2.197-3.26,8.081-3.26,9.852c0,0.496,0.213,0.922,0.709,0.922c2.055,0,4.891-4.111,7.087-8.223
			c0.213-0.425,0.354-0.566,0.567-0.566c0.496,0,0.921,1.275,0.921,2.552C283.361,45.29,283.219,46.141,282.936,46.708z"/>
		<path fill="#FFFFFF" d="M324.4,46.708c-1.347,2.693-5.244,8.505-11.978,8.505c-5.812,0-7.088-2.126-7.371-2.48
			c-0.213-0.354-0.354-1.347-0.354-2.197c0-0.78,0.07-1.418,0.354-1.418c0.566,0,1.913,1.488,3.827,1.488
			c2.126,0,3.686-1.771,3.686-3.827c0-3.473-3.474-4.536-5.387-8.009c0,0-0.283,0.851-0.567,1.843
			c-0.566,2.055-3.898,9.355-5.457,9.355c-0.638,0-0.922-2.197-0.922-2.835c0-0.496,2.623-3.969,3.827-7.867
			c0.709-2.268,0.851-3.615,0.851-4.536c0-0.638-0.07-1.063-0.07-1.347c0-0.78,2.197-2.056,3.898-2.056h0.07
			c1.488,0,2.197,0.071,2.197,0.851c0,4.961,7.301,7.229,7.301,13.68c0,1.771-0.78,3.048-1.347,3.756
			c2.835-1.204,4.678-3.756,6.449-7.088c0.213-0.425,0.284-0.566,0.567-0.566c0.496,0,0.851,1.275,0.851,2.552
			C324.826,45.29,324.755,46.141,324.4,46.708z"/>
		<path fill="#FFFFFF" d="M345.239,26.508c-0.354,0.142-5.032,0.283-6.521,0.283c-2.836,0-6.45-0.071-9.994-0.212
			c-0.142,5.458-0.567,11.766-0.567,16.94v2.551c0,2.623,0.354,4.679,1.56,4.679c2.056,0,4.891-4.111,7.088-8.223
			c0.213-0.425,0.354-0.566,0.567-0.566c0.496,0,0.921,1.275,0.921,2.552c0,0.779-0.142,1.63-0.425,2.197
			c-0.993,1.984-4.111,8.505-9.427,8.505c-5.812,0-5.954-12.12-5.954-12.616c-0.213-4.323-0.425-9.781-0.425-16.231v-0.071
			c-4.607-0.212-8.151-0.496-8.222-0.567c-0.639-0.212-0.639-1.843-0.639-1.843s0-1.63,0.567-1.843c0.071,0,3.118-0.425,8.363-0.78
			c0.142-4.891,0.496-9.285,0.78-9.923c0.425-0.496,2.409-1.417,3.118-1.417c1.134,0,2.269,0.851,2.41,1.205
			c0.212,0.496,0.354,3.827,0.354,9.072v0.78c1.7-0.071,3.473-0.071,5.386-0.071c2.623,0,10.207,0.354,10.916,0.709
			c0.354,0.354,0.992,2.126,0.992,2.764C346.09,25.303,345.451,26.295,345.239,26.508z"/>
		<path fill="#FFFFFF" d="M345.807,55.213c-6.237,0-11.341-4.678-11.341-10.419s5.104-10.419,11.341-10.419
			c6.308,0,11.411,4.678,11.411,10.419S352.114,55.213,345.807,55.213z M345.807,39.053c-2.552,0-4.678,2.552-4.678,5.741
			c0,3.118,2.126,5.741,4.678,5.741c2.622,0,4.748-2.623,4.748-5.741C350.555,41.604,348.429,39.053,345.807,39.053z"/>
		<path fill="#FFFFFF" d="M370.048,55.213c-1.914,0-3.757-0.567-5.387-1.418c0.212,5.458,0.425,11.128,0.496,15.451v3.544
			c0,3.189-0.071,5.175-0.213,5.528c-0.142,0.354-1.205,1.205-2.339,1.205h-0.071c-0.708,0-2.693-0.851-3.118-1.347
			c-0.426-0.921-0.992-8.363-1.063-15.025c0-1.772-0.07-3.474-0.07-5.104c0-14.813,0.992-22.893,1.062-22.964
			c0.213-0.78,1.985-0.851,1.985-0.851s1.913,0,2.196,0.851c0,0,0.071,0.496,0.143,1.347c1.843-1.276,4.04-2.056,6.379-2.056
			c6.308,0,11.411,4.678,11.411,10.419S376.355,55.213,370.048,55.213z M370.048,39.053c-3.97,0-5.741,2.552-5.741,5.741
			c0,3.118,1.771,5.741,5.741,5.741c2.622,0,4.748-2.623,4.748-5.741C374.796,41.604,372.67,39.053,370.048,39.053z"/>
		<path fill="#FFFFFF" d="M394.29,55.213c-1.914,0-3.757-0.567-5.387-1.418c0.212,5.458,0.425,11.128,0.496,15.451v3.544
			c0,3.189-0.071,5.175-0.213,5.528c-0.142,0.354-1.205,1.205-2.339,1.205h-0.071c-0.708,0-2.693-0.851-3.118-1.347
			c-0.426-0.921-0.992-8.363-1.063-15.025c0-1.772-0.07-3.474-0.07-5.104c0-14.813,0.992-22.893,1.062-22.964
			c0.213-0.78,1.985-0.851,1.985-0.851s1.913,0,2.196,0.851c0,0,0.071,0.496,0.143,1.347c1.843-1.276,4.04-2.056,6.379-2.056
			c6.308,0,11.411,4.678,11.411,10.419S400.598,55.213,394.29,55.213z M394.29,39.053c-3.97,0-5.741,2.552-5.741,5.741
			c0,3.118,1.771,5.741,5.741,5.741c2.622,0,4.748-2.623,4.748-5.741C399.038,41.604,396.912,39.053,394.29,39.053z"/>
		<path fill="#FFFFFF" d="M415.979,24.594c-0.071,2.481-1.984,4.465-4.253,4.465h-0.142c-2.339-0.071-4.04-2.055-4.04-4.607V24.24
			c0.071-2.552,1.914-4.465,4.182-4.465h0.213c2.269,0.071,4.04,2.126,4.04,4.607V24.594z M423.918,46.708
			c-0.992,1.984-4.111,8.505-9.498,8.505c-4.891,0-6.804-5.104-6.804-11.837c0-1.63,0.213-7.513,0.566-8.08
			c0.426-0.638,1.205-0.921,2.836-0.921c1.559,0,2.622,0.213,2.977,0.921c0.07,0.142,0.142,0.78,0.142,1.63
			c0,2.055-0.213,5.74-0.213,7.938c0,3.189,0.354,5.883,1.843,5.883c1.984,0,4.891-4.111,7.088-8.223
			c0.213-0.425,0.354-0.566,0.567-0.566c0.496,0,0.851,1.275,0.921,2.552v0.142C424.343,45.432,424.201,46.212,423.918,46.708z"/>
		<path fill="#FFFFFF" d="M451.701,46.708c-0.992,1.984-4.11,8.505-9.426,8.505c-9.994,0-4.466-14.459-8.08-14.459
			c-3.474,0-8.08,12.971-8.435,14.034l-0.071,0.07c-0.212,0.354-2.126,0.354-2.126,0.354s-1.843,0-2.056-0.354
			c-0.07-0.07-1.347-5.104-1.347-12.97c0-1.63,0.426-6.45,0.78-6.875c0.425-0.283,2.409-0.638,3.118-0.638h0.142
			c1.134,0,2.127,0.354,2.339,0.496c0.142,0.284,0.354,3.189,0.354,4.182c0,1.701-0.142,3.827-0.283,5.954
			c2.056-4.536,5.741-10.632,10.632-10.632c7.654,0,2.268,16.373,6.379,16.373c1.984,0,4.89-4.111,7.087-8.223
			c0.213-0.425,0.284-0.566,0.567-0.566c0.496,0,0.851,1.275,0.851,2.552C452.127,45.29,452.056,46.141,451.701,46.708z"/>
		<path fill="#FFFFFF" d="M477.716,46.708c-2.339,4.465-5.387,7.583-8.506,10.064c-0.07,4.536-0.283,8.931-0.566,11.978
			c-0.709,8.364-5.812,10.915-9.214,10.915c-4.82,0-8.151-3.969-8.151-9.284c0-7.088,5.741-10.207,12.049-14.246l-0.07-2.693
			c-1.701,1.062-3.757,1.771-6.024,1.771c-6.237,0-11.341-4.678-11.341-10.419s5.104-10.419,11.341-10.419
			c2.268,0,4.323,0.638,6.024,1.772c0.07-0.425,0.142-0.709,0.213-0.851c0.425-0.638,0.921-0.921,2.551-0.921
			c1.56,0,2.623,0.213,2.978,0.921c0.142,0.284,0.283,6.024,0.283,12.97v3.686c2.906-2.409,5.528-5.387,7.371-9.427
			c0.213-0.425,0.354-0.566,0.567-0.566c0.496,0,0.921,1.275,0.921,2.552C478.141,45.29,477.999,46.141,477.716,46.708z
			 M457.232,39.053c-2.552,0-4.678,2.552-4.678,5.741c0,3.118,2.126,5.741,4.678,5.741c4.04,0,5.812-2.623,5.812-5.741
			C463.044,41.604,461.272,39.053,457.232,39.053z M463.47,60.812c-4.183,2.835-7.442,5.244-7.442,9.568
			c0,1.134,0.638,3.898,3.544,3.898c2.552,0,4.04-3.19,4.04-8.576C463.611,64.356,463.54,62.655,463.47,60.812z"/>
		<path fill="#FFFFFF" d="M506.919,55.213c-2.339,0-4.465-0.779-6.308-1.914c0,0.639-0.071,1.063-0.071,1.135
			c-0.283,0.779-2.197,0.779-2.197,0.779s-1.843,0-2.055-0.779c-0.071-0.071-1.276-9.994-1.276-28.068
			c0-6.591,0.426-14.104,0.851-15.026c0.354-0.496,2.339-1.417,3.048-1.417c1.134,0,2.269,0.851,2.48,1.205
			c0.142,0.496,0.354,3.827,0.354,9.072c0,4.323-0.142,10.064-0.354,15.664c1.631-0.921,3.474-1.488,5.528-1.488
			c6.237,0,11.341,4.678,11.341,10.419S513.156,55.213,506.919,55.213z M506.919,39.053c-4.04,0-5.812,2.552-5.812,5.741
			c0,3.118,1.771,5.741,5.812,5.741c2.552,0,4.679-2.623,4.679-5.741C511.598,41.604,509.471,39.053,506.919,39.053z"/>
		<path fill="#FFFFFF" d="M548.1,46.708c-2.197,4.323-5.174,7.371-8.15,9.78c-0.071,4.679-0.283,9.144-0.567,12.262
			c-0.709,8.364-6.095,10.915-9.497,10.915c-4.82,0-8.151-3.969-8.151-9.284c0-7.088,5.741-10.207,12.05-14.246l-0.143-5.316
			c-1.63,2.269-3.969,4.395-7.087,4.395c-4.891,0-7.159-5.104-7.159-11.837c0-1.63,0.284-7.513,0.567-8.08
			c0.425-0.638,1.275-0.921,2.835-0.921c1.63,0,2.977,0.213,3.331,0.921c0.071,0.142,0.142,0.78,0.142,1.63
			c0,2.055-0.212,5.74-0.212,7.938c0,3.189,0.354,5.883,1.843,5.883c1.559,0,3.686-2.552,5.599-5.6v-1.56
			c0-5.315,0.071-7.726,0.426-8.292c0.425-0.638,1.205-0.921,2.835-0.921c1.56,0,2.622,0.213,2.977,0.921
			c0.142,0.354,0.283,8.009,0.283,16.373c2.765-2.339,5.316-5.245,7.088-9.144c0.142-0.425,0.354-0.566,0.567-0.566
			c0.496,0,0.851,1.275,0.851,2.552v0.425C548.525,45.573,548.384,46.212,548.1,46.708z M533.925,60.812
			c-4.253,2.835-7.514,5.244-7.514,9.568c0,1.134,0.709,3.898,3.615,3.898c2.552,0,3.969-3.19,3.969-8.576
			C533.995,64.356,533.995,62.655,533.925,60.812z"/>
		<path fill="#FFFFFF" d="M552.638,57.552c-2.197,0-3.898-1.63-3.898-3.757c0-2.126,1.701-3.756,3.898-3.756
			c2.269,0,4.04,1.63,4.04,3.756C556.678,55.922,554.906,57.552,552.638,57.552z M557.741,26.153
			c-1.347,7.442-2.056,16.939-2.056,18.286c0,1.56-1.134,2.126-3.189,2.126c-0.992,0-2.764-0.142-3.118-2.268
			c-0.284-1.488-0.284-2.906-0.284-4.678v-2.268c0-8.08,2.127-26.012,4.891-29.343c0.851-1.063,3.474-1.134,3.615-1.134
			c3.26,0,3.969,1.63,3.969,2.765C561.568,10.702,559.158,18.64,557.741,26.153z"/>
		<path fill="#FFFFFF" d="M569.083,57.552c-2.197,0-3.898-1.63-3.898-3.757c0-2.126,1.701-3.756,3.898-3.756
			c2.269,0,4.04,1.63,4.04,3.756C573.123,55.922,571.352,57.552,569.083,57.552z M574.187,26.153
			c-1.347,7.442-2.056,16.939-2.056,18.286c0,1.56-1.134,2.126-3.189,2.126c-0.992,0-2.764-0.142-3.118-2.268
			c-0.284-1.488-0.284-2.906-0.284-4.678v-2.268c0-8.08,2.127-26.012,4.891-29.343c0.851-1.063,3.474-1.134,3.615-1.134
			c3.26,0,3.969,1.63,3.969,2.765C578.014,10.702,575.604,18.64,574.187,26.153z"/>
	</g>
</g>
</svg>
