<?xml version="1.0" encoding="utf-8"?>
<!-- Generator: Adobe Illustrator 16.2.1, SVG Export Plug-In . SVG Version: 6.00 Build 0)  -->
<!DOCTYPE svg PUBLIC "-//W3C//DTD SVG 1.1//EN" "http://www.w3.org/Graphics/SVG/1.1/DTD/svg11.dtd">
<svg version="1.1" id="Layer_1" xmlns="http://www.w3.org/2000/svg" xmlns:xlink="http://www.w3.org/1999/xlink" x="0px" y="0px"
	 width="247.395px" height="42.595px" viewBox="0 0 247.395 42.595" enable-background="new 0 0 247.395 42.595"
	 xml:space="preserve">
<g>
	<path fill="#FFFFFF" d="M15.662,42.042c-1.9,0-4.318-2.648-4.433-3.396c-0.288-1.439-0.691-2.822-0.691-12.205
		c0-9.097,0.691-15.544,1.555-19.632C9.731,6.866,3.687,9.054,2.938,9.054c-0.518,0-1.612-1.612-1.612-2.879
		c0-0.345,0.115-0.633,0.346-0.749c1.209-0.69,12.32-4.548,24.986-4.548c12.09,0,27.059,1.324,27.059,8.809c0,0,0,7.542-13.529,8.75
		c14.854,1.324,14.854,10.478,14.854,10.478C55.041,39.912,35.063,41.927,15.662,42.042z M25.161,21.144
		c-3.167,0-7.484,0.345-8.578,0.46c-0.518,6.161-0.633,12.723-0.633,16.178c0.461,0,1.497,0.057,2.936,0.057
		c7.888,0,27.692-0.863,27.692-9.096C46.578,23.562,39.093,21.144,25.161,21.144z M27.176,5.37c-2.648,0-7.254,0.345-8.175,0.403
		c-0.576,2.591-1.439,7.196-2.072,12.493c0.633-0.058,6.103-0.403,8.636-0.403c10.593-0.115,19.69-4.605,19.69-8.06
		C45.254,6.348,35.581,5.37,27.176,5.37z"/>
	<path fill="#FFFFFF" d="M65.629,40.085c-5.066,0-9.211-3.801-9.211-8.463c0-4.664,4.145-8.463,9.211-8.463
		c5.124,0,9.269,3.799,9.269,8.463C74.898,36.285,70.753,40.085,65.629,40.085z M65.629,26.958c-2.073,0-3.8,2.072-3.8,4.664
		c0,2.533,1.727,4.662,3.8,4.662c2.13,0,3.857-2.129,3.857-4.662C69.487,29.031,67.759,26.958,65.629,26.958z"/>
	<path fill="#FFFFFF" d="M98.328,33.177c-0.806,1.611-3.339,6.908-7.657,6.908c-2.015,0-4.894-2.016-7.657-4.549
		c-2.878,2.764-5.354,4.951-5.757,5.01H77.2c-0.921,0-2.36-1.268-2.418-2.016c0-0.346,2.303-3.166,5.066-6.275
		c-2.937-3.225-5.182-6.391-5.182-7.023c0-1.094,2.476-2.648,3.742-2.648c0.633,0,2.418,2.936,4.663,6.102
		c2.937-3.223,5.757-6.045,6.333-6.102h0.115c1.324,0,3.109,1.439,3.224,2.59c0,0.635-3.224,4.031-6.679,7.428
		c1.9,2.188,3.857,3.857,5.7,3.857c1.612,0,3.973-3.34,5.757-6.68c0.115-0.344,0.23-0.459,0.46-0.459
		c0.403,0,0.691,1.035,0.691,2.072C98.674,32.025,98.616,32.716,98.328,33.177z"/>
	<path fill="#FFFFFF" d="M118.647,42.042c-1.842,0-4.318-2.648-4.433-3.396c-0.288-1.439-0.691-2.822-0.691-12.205
		c0-9.097,0.691-15.544,1.555-19.632c-2.361,0.115-8.406,2.246-9.154,2.246c-0.518,0-1.612-1.612-1.612-2.821
		c0-0.403,0.115-0.691,0.345-0.806c1.209-0.69,12.32-4.548,24.986-4.548c26.771,0,29.419,12.666,29.419,17.962
		C159.062,30.585,147.318,42.042,118.647,42.042z M129.01,5.715c-3.972,0-6.39,0.23-7.081,0.288
		c-0.633,2.994-1.669,8.463-2.245,14.508c-0.633,6.448-0.749,13.53-0.749,17.272c14.968-0.115,31.665-4.318,31.665-18.827
		C150.6,13.429,146.857,5.715,129.01,5.715z"/>
	<path fill="#FFFFFF" d="M178.287,33.177c-1.094,2.188-4.26,6.908-9.729,6.908c-7.427,0-10.075-5.125-10.075-8.463
		c0-4.664,4.146-8.463,9.212-8.463c3.742,0,6.735,2.072,6.735,5.295c0,3.398-3.166,5.24-6.735,5.24c-1.209,0-2.418-0.23-3.627-0.633
		c0.519,2.188,2.36,3.223,4.49,3.223c4.549,0,6.794-2.59,8.924-6.506c0.173-0.344,0.23-0.459,0.461-0.459
		c0.402,0,0.69,1.035,0.69,2.072C178.633,32.025,178.575,32.716,178.287,33.177z M167.694,26.958c-1.899,0-3.569,1.785-3.8,4.088
		c0.403,0.172,1.094,0.23,1.843,0.23c1.957,0,4.433-0.576,4.433-2.246C170.17,27.476,168.961,26.958,167.694,26.958z"/>
	<path fill="#FFFFFF" d="M189.282,33.177c-0.863,1.611-3.397,6.908-7.716,6.908c-4.721,0-4.778-9.846-4.836-10.248
		c-0.173-3.512-0.288-7.945-0.288-13.184c0-5.354,0.346-11.457,0.691-12.205c0.288-0.403,1.899-1.151,2.476-1.151
		c0.921,0,1.842,0.691,2.015,0.979c0.115,0.403,0.288,3.109,0.288,7.369c0,5.239-0.519,12.955-0.519,18.941v2.072
		c0,2.131,0.288,3.801,1.267,3.801c1.612,0,3.973-3.34,5.759-6.68c0.173-0.344,0.287-0.459,0.46-0.459
		c0.403,0,0.691,1.035,0.691,2.072v0.346C189.57,32.255,189.455,32.832,189.282,33.177z"/>
	<path fill="#FFFFFF" d="M210.237,33.177c-0.806,1.611-3.339,6.908-7.656,6.908c-2.476,0-4.146-1.555-5.009-4.031
		c-1.324,1.959-3.34,4.031-6.103,4.031c-3.974,0-5.816-4.146-5.816-9.615c0-1.324,0.23-6.102,0.461-6.562
		c0.346-0.518,1.036-0.748,2.304-0.748c1.324,0,2.418,0.172,2.706,0.748c0.058,0.115,0.115,0.633,0.115,1.324
		c0,1.67-0.173,4.662-0.173,6.447c0,2.592,0.288,4.779,1.497,4.779s2.764-1.785,4.26-4.088c-0.058-0.633-0.058-1.268-0.058-1.9
		c0-1.324,0.173-6.102,0.461-6.562c0.346-0.518,0.979-0.748,2.303-0.748c1.267,0,2.36,0.172,2.648,0.748
		c0.058,0.172,0.115,0.807,0.115,1.67c0,1.727-0.115,4.432-0.115,6.102c0,2.592,0.288,4.779,1.497,4.779
		c1.611,0,3.973-3.34,5.757-6.68c0.115-0.344,0.23-0.459,0.461-0.459c0.402,0,0.69,1.035,0.69,2.072
		C210.583,32.025,210.525,32.716,210.237,33.177z"/>
	<path fill="#FFFFFF" d="M231.479,33.177c-0.807,1.611-3.34,6.908-7.657,6.908c-2.015,0-4.894-2.016-7.657-4.549
		c-2.878,2.764-5.354,4.951-5.757,5.01h-0.058c-0.921,0-2.36-1.268-2.418-2.016c0-0.346,2.303-3.166,5.066-6.275
		c-2.937-3.225-5.182-6.391-5.182-7.023c0-1.094,2.476-2.648,3.742-2.648c0.633,0,2.418,2.936,4.663,6.102
		c2.937-3.223,5.757-6.045,6.333-6.102h0.115c1.324,0,3.108,1.439,3.224,2.59c0,0.635-3.224,4.031-6.678,7.428
		c1.899,2.188,3.857,3.857,5.699,3.857c1.612,0,3.973-3.34,5.757-6.68c0.115-0.344,0.23-0.459,0.461-0.459
		c0.403,0,0.69,1.035,0.69,2.072C231.824,32.025,231.767,32.716,231.479,33.177z"/>
	<path fill="#FFFFFF" d="M245.985,33.177c-1.094,2.188-4.26,6.908-9.729,6.908c-7.427,0-10.075-5.125-10.075-8.463
		c0-4.664,4.146-8.463,9.212-8.463c3.742,0,6.735,2.072,6.735,5.295c0,3.398-3.166,5.24-6.735,5.24c-1.209,0-2.418-0.23-3.627-0.633
		c0.519,2.188,2.36,3.223,4.49,3.223c4.549,0,6.794-2.59,8.924-6.506c0.173-0.344,0.23-0.459,0.461-0.459
		c0.402,0,0.69,1.035,0.69,2.072C246.331,32.025,246.273,32.716,245.985,33.177z M235.393,26.958c-1.899,0-3.569,1.785-3.8,4.088
		c0.403,0.172,1.094,0.23,1.843,0.23c1.957,0,4.433-0.576,4.433-2.246C237.868,27.476,236.659,26.958,235.393,26.958z"/>
</g>
</svg>
